<svg width="192" height="192" viewBox="0 0 192 192" fill="none" xmlns="http://www.w3.org/2000/svg">
<g clip-path="url(#clip0_1_35)">
<path d="M19.0944 187.456C20.3319 184.959 21.757 182.079 22.2669 181.066C22.7768 180.053 23.1894 179.206 23.1894 179.191C23.1894 179.168 21.6219 179.153 19.7018 179.153C16.3569 179.153 16.1993 179.146 15.7943 179.011C14.9168 178.718 14.2193 178.081 13.7993 177.211L13.5518 176.686L13.5368 163.336C13.5143 148.696 13.4918 149.723 13.9043 148.906C14.1218 148.471 14.8118 147.781 15.2468 147.563C16.0343 147.166 15.8843 147.173 21.2093 147.173H26.0993V91.4628H15.0218C7.37926 91.4628 3.82438 91.4403 3.54678 91.3878C2.62429 91.2229 1.58934 90.4503 1.19926 89.6328C0.786768 88.7778 0.816768 89.6703 0.816768 75.4354C0.816768 61.2004 0.794269 62.0928 1.19926 61.2379C1.58926 60.4279 2.62426 59.6554 3.54678 59.4829C3.82429 59.4304 7.38678 59.4079 15.0218 59.4079H26.0993V-0.022522H178.544L178.574 147.128L188.654 147.203L189.037 147.353C190.064 147.765 190.769 148.545 191.084 149.595C191.182 149.925 191.197 151.215 191.189 163.148C191.189 171.788 191.167 176.438 191.122 176.633C191.009 177.113 190.709 177.653 190.327 178.065C189.892 178.53 189.472 178.808 188.909 178.995C188.504 179.13 188.354 179.138 185.002 179.138C183.089 179.138 181.514 179.153 181.514 179.175C181.514 179.198 181.792 179.768 182.129 180.443C182.467 181.118 183.899 183.998 185.302 186.833L187.859 191.985L102.352 192H16.8446L19.0944 187.456ZM40.6432 144.054L42.1732 140.964H162.535L165.595 147.145H171.82L171.85 78.8341H88.149V89.4391C88.149 96.3315 88.1265 100.172 88.0815 100.412C87.9015 101.364 87.1815 102.339 86.3415 102.767C85.5315 103.179 85.5239 103.179 80.544 103.179H76.0141L71.424 108.849H68.3791L63.789 103.179H59.289C55.6739 103.179 54.6989 103.157 54.3389 103.082C53.1689 102.834 52.2688 102.054 51.8339 100.907L51.6839 100.509L51.6539 78.8338H32.8587V112.965C32.8587 131.738 32.8812 147.112 32.9037 147.143C32.9262 147.165 34.3362 147.18 36.0313 147.173L39.1138 147.158L40.6438 144.068L40.6432 144.054ZM51.6531 61.4272C51.6531 53.9197 51.6756 50.6797 51.7281 50.4246C51.9906 49.1571 53.0781 48.0696 54.3456 47.8072C54.5931 47.7547 56.558 47.7322 60.6156 47.7322H66.5257V40.5623C66.5257 33.1672 66.5407 32.6272 66.8107 31.4797C67.6657 27.7748 70.6432 24.7972 74.3406 23.9423C75.5106 23.6723 76.0206 23.6573 86.1682 23.6573C94.7557 23.6573 96.0307 23.6423 96.3832 23.5523C97.6657 23.2223 98.6858 22.1798 98.9107 20.9573C98.9557 20.7248 98.9782 18.0998 98.9782 13.6747V6.75213H32.8566V72.0625H51.6518L51.6531 61.4272ZM171.855 39.4144V6.75841H105.733L105.711 14.1459C105.681 22.3958 105.711 21.9158 105.193 23.4685C104.668 25.036 103.941 26.2059 102.726 27.421C100.993 29.161 98.9531 30.1285 96.5682 30.3534C96.0957 30.3984 92.2557 30.4209 86.0832 30.4209C79.7382 30.4209 76.2131 30.4434 75.9731 30.4884C74.7731 30.7134 73.6931 31.7409 73.3781 32.956C73.2881 33.301 73.2731 34.306 73.2731 40.5385V47.7235H79.1832C83.2406 47.7235 85.2057 47.746 85.4532 47.7985C86.5707 48.031 87.5307 48.871 87.9582 49.9959L88.1082 50.3934L88.1382 72.0686H171.839L171.855 39.4144Z" fill="black"/>
</g>
<defs>
<clipPath id="clip0_1_35">
<rect width="192" height="192" fill="white"/>
</clipPath>
</defs>
</svg>
