<?xml version="1.0" encoding="UTF-8"?>
<svg width="1200pt" height="1200pt" version="1.1" viewBox="0 0 1200 1200" xmlns="http://www.w3.org/2000/svg">
 <path d="m887.58 578.72c-1.2188-20.156-7.9688-65.906-5.0156-85.781l-114.61-11.203c-25.312-1.9688-51-20.625-71.953-33.609-39-26.109-83.391 2.625-126.28-8.5781-53.719-19.078-88.172 36.984-137.48 41.953l-114.84 11.438c3.2344 13.734-3.5156 61.219-4.0312 75.75-0.42188 4.9688-1.2656 12.984-1.9219 17.859h106.27c-43.594 47.156-94.828 127.69-94.828 246.84 0.5625 31.266 47.109 31.453 47.672 0 0-126.74 66.469-203.26 106.03-237.32 1.4062-1.4062 2.8594-2.8594 3.7969-4.2656 16.453 5.9531 30.281 17.156 39.328 30.984 6.1406-1.3594 13.172-1.5469 19.547-1.4062h121.74c6.4219-0.09375 13.172 0.09375 19.547 1.4062 9.0469-14.062 22.641-25.031 39.094-30.984 0.9375 1.4062 2.3906 2.8594 3.7969 4.2656 39.562 34.078 106.03 110.53 106.03 237.32 0.32812 31.172 47.25 31.5 47.672 0 0-119.11-51.234-199.69-94.828-246.84h106.27c-0.23437-2.625-0.70312-5.25-0.9375-7.875zm-287.58-16.219c-31.312-0.60938-31.312-47.062 0-47.672 31.312 0.60938 31.312 47.062 0 47.672z"/>
 <path d="m666.24 669h-132.47c-8.5781 0-16.922 3.7969-22.641 10.5-5.7188 6.6562-8.1094 15.469-6.6562 24.047 7.6406 47.156 47.906 81.469 95.531 81.469 47.672 0 87.938-34.312 95.531-81.469 3.4219-17.438-11.672-35.016-29.297-34.547z"/>
 <path d="m1016.7 474.61h-56.484c-17.625-0.51562-33.094 16.266-30.984 33.844l5.9531 66c1.4062 16.219 14.766 28.359 30.984 28.359h44.578c16.219 0 29.531-12.141 31.219-28.359l5.7188-66c2.1562-17.578-13.359-34.359-30.984-33.844z"/>
 <path d="m239.76 474.61h-56.484c-17.625-0.51562-33.094 16.266-30.984 33.844 0 0 5.7188 66 5.7188 66 1.6875 16.219 15 28.359 31.219 28.359h44.578c16.219 0 29.531-12.141 30.984-28.359l5.9531-66c2.1094-17.578-13.359-34.359-30.984-33.844z"/>
 <path d="m1076.5 385.26h-64.219v-18.375c-0.51562-31.312-47.109-31.312-47.672 0v18.375h-64.219c-13.125 0-23.812 10.734-23.812 23.812 0 13.125 10.734 23.812 23.812 23.812h29.766c42-0.046875 104.67 0 146.29 0 31.266-0.60938 31.359-47.062 0-47.672z"/>
 <path d="m323.39 409.08c0-13.125-10.734-23.812-23.812-23.812h-64.219v-18.375c0-13.172-10.641-23.812-23.812-23.812s-23.812 10.688-23.812 23.812v18.375h-64.219c-31.266 0.5625-31.359 47.062 0 47.672h176.06c13.125 0 23.812-10.734 23.812-23.812z"/>
</svg>
