<?xml version="1.0" encoding="UTF-8" standalone="no"?>
<!DOCTYPE svg PUBLIC "-//W3C//DTD SVG 1.1//EN" "http://www.w3.org/Graphics/SVG/1.1/DTD/svg11.dtd">
<svg width="100%" height="100%" viewBox="0 0 1113 1113" version="1.1" xmlns="http://www.w3.org/2000/svg" xmlns:xlink="http://www.w3.org/1999/xlink" xml:space="preserve" xmlns:serif="http://www.serif.com/" style="fill-rule:evenodd;clip-rule:evenodd;stroke-linejoin:round;stroke-miterlimit:2;">
    <g transform="matrix(1,0,0,1,-505.092,-716.725)">
        <g transform="matrix(1,0,0,1,-545.529,449.319)">
            <path d="M1668.11,270.767L1678.59,356.313C1712.9,361.562 1746.52,370.572 1778.86,383.178L1830.7,314.334C1868.09,330.746 1903.56,351.222 1936.46,375.394L1902.77,454.719C1929.85,476.419 1954.47,501.033 1976.17,528.118L2055.49,494.422C2079.66,527.328 2100.14,562.794 2116.55,600.18L2047.71,652.031C2060.31,684.365 2069.32,717.989 2074.57,752.295L2160.12,762.776C2164.6,803.359 2164.6,844.312 2160.12,884.895L2074.57,895.377C2069.32,929.683 2060.31,963.306 2047.71,995.641L2116.55,1047.49C2100.14,1084.88 2079.66,1120.34 2055.49,1153.25L1976.17,1119.55C1954.47,1146.64 1929.85,1171.25 1902.77,1192.95L1936.46,1272.28C1903.56,1296.45 1868.09,1316.93 1830.7,1333.34L1778.86,1264.49C1746.52,1277.1 1712.9,1286.11 1678.59,1291.36L1668.11,1376.9C1627.53,1381.38 1586.57,1381.38 1545.99,1376.9L1535.51,1291.36C1501.2,1286.11 1467.58,1277.1 1435.25,1264.49L1383.39,1333.34C1346.01,1316.93 1310.54,1296.45 1277.64,1272.28L1311.33,1192.95C1284.25,1171.25 1259.63,1146.64 1237.93,1119.55L1158.61,1153.25C1134.44,1120.34 1113.96,1084.88 1097.55,1047.49L1166.39,995.641C1153.79,963.306 1144.78,929.683 1139.53,895.377L1053.98,884.895C1049.5,844.312 1049.5,803.359 1053.98,762.776L1139.53,752.295C1144.78,717.989 1153.79,684.365 1166.39,652.031L1097.55,600.18C1113.96,562.794 1134.44,527.328 1158.61,494.422L1237.93,528.118C1259.63,501.033 1284.25,476.419 1311.33,454.719L1277.64,375.394C1310.54,351.222 1346.01,330.746 1383.39,314.334L1435.25,383.178C1467.58,370.572 1501.2,361.562 1535.51,356.313L1545.99,270.767C1586.57,266.286 1627.53,266.286 1668.11,270.767ZM1607.05,444.443C1816.44,444.443 1986.44,614.443 1986.44,823.836C1986.44,1033.23 1816.44,1203.23 1607.05,1203.23C1397.66,1203.23 1227.66,1033.23 1227.66,823.836C1227.66,614.443 1397.66,444.443 1607.05,444.443Z"/>
        </g>
        <g transform="matrix(1.57135,0,0,1.57135,50.3379,-1833.3)">
            <g transform="matrix(416.667,0,0,416.667,711.606,2118.45)">
            </g>
            <text x="571.606px" y="2118.45px" style="font-family:'BodoniSvtyTwoITCTT-Bold', 'Bodoni 72';font-weight:700;font-size:416.667px;fill:rgb(35,31,32);">I</text>
        </g>
    </g>
</svg>
