<?xml version="1.0" encoding="UTF-8"?>
<svg width="1200pt" height="1200pt" version="1.1" viewBox="0 0 1200 1200" xmlns="http://www.w3.org/2000/svg">
 <path d="m962.52 60h-725.04c-47.023 0.14844-92.082 18.895-125.33 52.148-33.254 33.25-52 78.309-52.148 125.33v725.04c0.14844 47.023 18.895 92.082 52.148 125.33 33.25 33.254 78.309 52 125.33 52.148h725.04c47.023-0.14844 92.082-18.895 125.33-52.148 33.254-33.25 52-78.309 52.148-125.33v-725.04c-0.14844-47.023-18.895-92.082-52.148-125.33-33.25-33.254-78.309-52-125.33-52.148zm-151.63 348.68c53.336 53.336 83.301 125.68 83.301 201.1 0 75.426-29.965 147.77-83.301 201.1-53.336 53.336-125.67 83.297-201.1 83.297-75.426 0-147.77-29.961-201.1-83.297-53.332-53.336-83.297-125.68-83.297-201.1 0-75.426 29.961-147.77 83.297-201.1 35.301-35.301 79.273-60.688 127.49-73.609 48.223-12.922 98.996-12.922 147.22 0 48.223 12.922 92.191 38.309 127.49 73.609zm-201.09-148.22c92.648 0 181.5 36.805 247.02 102.32 65.512 65.512 102.32 154.37 102.32 247.02 0 92.648-36.805 181.5-102.32 247.02-65.516 65.512-154.37 102.32-247.02 102.32-92.648 0-181.5-36.805-247.02-102.32-65.512-65.516-102.32-154.37-102.32-247.02 0-92.648 36.805-181.5 102.32-247.02 65.512-65.512 154.37-102.32 247.02-102.32zm360.67-76.586c20.582 0 40.32 8.1758 54.875 22.73 14.551 14.555 22.727 34.293 22.727 54.875s-8.1758 40.32-22.727 54.875c-14.555 14.551-34.293 22.73-54.875 22.73-20.582 0-40.32-8.1797-54.875-22.73-14.555-14.555-22.73-34.293-22.73-54.875 0.003906-20.582 8.1797-40.32 22.734-54.871 14.551-14.555 34.289-22.73 54.871-22.734z" fill-rule="evenodd"/>
</svg>
