<?xml version="1.0" encoding="UTF-8"?>
<svg width="1200pt" height="1200pt" version="1.1" viewBox="0 0 1200 1200" xmlns="http://www.w3.org/2000/svg">
 <path d="m285.61 316.4c-7.5938 0-13.734-6.1406-13.734-13.734s6.1406-13.734 13.734-13.734h25.969c7.5469 0 13.688 6.1406 13.688 13.734s-6.1406 13.734-13.688 13.734zm-95.344 0c-7.5938 0-13.734-6.1406-13.734-13.734s6.1406-13.734 13.734-13.734h25.969c7.5469 0 13.688 6.1406 13.688 13.734s-6.1406 13.734-13.688 13.734zm876 31.219v-89.812h-932.53v89.719zm0 594.66v-567.32h-932.53v567.24zm-274.5-152.44v86.766h-21.703v-86.766zm-49.219 31.734v23.344h-493.6v-23.344zm76.594 23.344 0.046875-23.344h131.86v23.344zm0-50.766h145.64c3.6562 0 7.125 1.4531 9.7031 4.0312 2.5781 2.5781 4.0312 6.0469 4.0312 9.6562v50.766c0 3.6562-1.4531 7.125-4.0312 9.7031-2.5781 2.5781-6.0469 4.0312-9.7031 4.0312h-145.6v18c0 7.5938-6.1406 13.734-13.688 13.734h-49.219c-7.5469 0-13.688-6.1406-13.688-13.734v-18h-507.37c-3.6562 0-7.125-1.4531-9.7031-4.0312-2.5781-2.5781-4.0312-6.0469-4.0312-9.7031v-50.766c0-7.5469 6.1406-13.688 13.734-13.688h507.37v-18h-0.046875c0-3.6562 1.4531-7.125 4.0312-9.7031s6.0469-4.0312 9.7031-4.0312h49.219-0.046875c3.6562 0 7.1719 1.4531 9.7031 4.0312 2.5781 2.5781 4.0312 6.0469 4.0312 9.7031v18zm-66.656-74.953h-305.06c-34.594-0.046875-62.672-28.078-62.719-62.719v-170.72c0.046875-34.641 28.125-62.719 62.719-62.766h305.16c34.594 0.046875 62.672 28.125 62.719 62.766v170.72c-0.046876 34.641-28.125 62.672-62.719 62.719zm-305.06-27.422c-19.453-0.046875-35.25-15.797-35.297-35.297v-170.72c0.046875-19.5 15.844-35.297 35.297-35.344h305.16c19.453 0.046875 35.25 15.844 35.297 35.344v170.72c-0.046874 19.5-15.844 35.25-35.297 35.297zm145.69-142.78 38.297 22.125-38.297 22.125c-0.23438 0.14062-0.46875 0.28125-0.70313 0.42188l-37.547 21.703v-88.453zm-44.297-57.188 58.031 33.469 58.781 33.938 0.046876 0.046875c4.2188 2.4844 6.8438 7.0312 6.7969 11.953-0.046874 4.875-2.6719 9.4219-6.9844 11.812l-58.688 33.891c-0.23438 0.14062-0.51563 0.28125-0.75 0.42188l-58.125 33.609v-0.046875c-3.0938 1.8281-6.8438 2.2969-10.359 1.3594-3.4688-0.9375-6.4688-3.2344-8.25-6.375-1.2188-2.0625-1.8281-4.4062-1.8281-6.7969h-0.046876v-135.89c0-5.1094 2.7656-9.75 7.2656-12.141 4.4531-2.3906 9.8906-2.0625 14.109 0.75zm-346.13 248.86c-7.5938 0-13.734-6.1406-13.734-13.734 0-7.5469 6.1406-13.688 13.734-13.688h130.45c7.5938 0 13.734 6.1406 13.734 13.688 0 7.5938-6.1406 13.734-13.734 13.734zm0-50.578c-3.7031 0.14062-7.3125-1.2656-9.9844-3.8438-2.625-2.5781-4.125-6.1406-4.125-9.8438s1.5-7.2656 4.125-9.8438c2.6719-2.5781 6.2812-3.9844 9.9844-3.8906h130.45c3.7031-0.09375 7.3125 1.3125 9.9844 3.8906s4.1719 6.1406 4.1719 9.8438-1.5 7.2656-4.1719 9.8438-6.2812 3.9844-9.9844 3.8438zm0-50.531c-3.7031 0.09375-7.3125-1.2656-9.9844-3.8906-2.625-2.5781-4.125-6.0938-4.125-9.7969 0-3.75 1.5-7.2656 4.125-9.8438 2.6719-2.5781 6.2812-3.9844 9.9844-3.8906h130.45c3.7031-0.09375 7.3125 1.3125 9.9844 3.8906s4.1719 6.0938 4.1719 9.8438c0 3.7031-1.5 7.2188-4.1719 9.7969-2.6719 2.625-6.2812 3.9844-9.9844 3.8906zm116.16-189.14v101.86l-101.86 0.046875v-101.86zm-115.59-27.422h129.32c3.6094 0 7.125 1.4531 9.7031 4.0312s3.9844 6.0469 3.9844 9.7031v129.28c0 7.5938-6.1406 13.734-13.688 13.734h-129.32c-7.5469-0.046876-13.641-6.1875-13.641-13.734v-129.28c0-3.6562 1.4531-7.125 4.0312-9.7031 2.5312-2.5781 6.0469-4.0312 9.6562-4.0312zm663.61 317.68c-7.5469 0-13.688-6.1406-13.688-13.734 0-7.5469 6.1406-13.688 13.688-13.688h130.45c7.5938 0 13.734 6.1406 13.734 13.688 0 7.5938-6.1406 13.734-13.734 13.734zm0-50.578c-3.7031 0.14062-7.3125-1.2656-9.9375-3.8438-2.6719-2.5781-4.1719-6.1406-4.1719-9.8438s1.5-7.2656 4.1719-9.8438c2.625-2.5781 6.2344-3.9844 9.9375-3.8906h130.45c3.7031-0.09375 7.3125 1.3125 9.9844 3.8906 2.625 2.5781 4.125 6.1406 4.125 9.8438s-1.5 7.2656-4.125 9.8438c-2.6719 2.5781-6.2812 3.9844-9.9844 3.8438zm0-50.531c-3.7031 0.09375-7.3125-1.2656-9.9375-3.8906-2.6719-2.5781-4.1719-6.0938-4.1719-9.7969 0-3.75 1.5-7.2656 4.1719-9.8438 2.625-2.5781 6.2344-3.9844 9.9375-3.8906h130.45c3.7031-0.09375 7.3125 1.3125 9.9844 3.8906 2.625 2.5781 4.125 6.0938 4.125 9.8438 0 3.7031-1.5 7.2188-4.125 9.7969-2.6719 2.625-6.2812 3.9844-9.9844 3.8906zm116.16-189.14v101.86l-101.86 0.046875v-101.86zm-115.59-27.422h129.32c7.5469 0.046875 13.641 6.1875 13.641 13.734v129.28c0 7.5938-6.1406 13.734-13.688 13.734h-129.28c-7.5469 0-13.688-6.1406-13.688-13.734v-129.28c0-3.6562 1.4062-7.125 3.9844-9.7031 2.5781-2.5781 6.0938-4.0312 9.7031-4.0312zm-486.47-106.64v0.046875c-7.5469 0-13.688-6.1406-13.688-13.734s6.1406-13.734 13.688-13.734h194.06c7.5938 0 13.734 6.1406 13.734 13.734s-6.1406 13.734-13.734 13.734z" fill-rule="evenodd"/>
</svg>
